# xmcd
#
# Track frame offsets:
#	150
#	6450
#	14025
#	16575
#	19075
#	25275
#	36400
#	43825
#	54750
#	60950
#	64950
#	68300
#	74325
#	90600
#	96750
#	105525
#	109875
#	115725
#	125850
#	126825
#	133475
#	149300
#	159375
#	170625
#	177675
#	184950
#	190500
#	206412
#	220562
#	236150
#
# Disc length: 3336 seconds
#
# Revision: 1
# Processed by: cddbd v1.5.1PL0 Copyright (c) Steve Scherf et al.
# Submitted via: CDex 1.50Beta5
#
DISCID=b20d061e
DTITLE=大谷幸 - 化粧師
DYEAR=1900
DGENRE=Soundtrack
TTITLE0=大谷幸/化粧師
TTITLE1=女は太陽
TTITLE2=雨中の時子
TTITLE3=時子と鶴子
TTITLE4=小三馬と純江・秘密
TTITLE5=春子・癒しの化粧
TTITLE6=少年・光夫
TTITLE7=時子・悲愁
TTITLE8=小三馬の家
TTITLE9=時子・独学
TTITLE10=光夫の筆絵
TTITLE11=灯篭流し
TTITLE12=小夜・心への化粧
TTITLE13=時子・学びの夜
TTITLE14=富士子・目覚めの化粧
TTITLE15=家族の再生
TTITLE16=時子・深川にて
TTITLE17=小三馬・回想
TTITLE18=衝撃
TTITLE19=時子・逃走
TTITLE20=純江・傷心
TTITLE21=純江・別離の化粧
TTITLE22=小三馬・風の記憶
TTITLE23=風の詩
TTITLE24=時子・決意の化粧
TTITLE25=風のように
TTITLE26=化粧師・メインテーマ エンディング
TTITLE27=化粧師・Aテーマ
TTITLE28=化粧師・Bテーマ
TTITLE29=化粧師・Cテーマ
EXTD=
EXTT0=
EXTT1=
EXTT2=
EXTT3=
EXTT4=
EXTT5=
EXTT6=
EXTT7=
EXTT8=
EXTT9=
EXTT10=
EXTT11=
EXTT12=
EXTT13=
EXTT14=
EXTT15=
EXTT16=
EXTT17=
EXTT18=
EXTT19=
EXTT20=
EXTT21=
EXTT22=
EXTT23=
EXTT24=
EXTT25=
EXTT26=
EXTT27=
EXTT28=
EXTT29=
PLAYORDER=
